# xmcd
#
# Track frame offsets:
#	150
#	12831
#	27487
#	42791
#	58196
#	73621
#	90868
#	109345
#	128351
#	149307
#	173220
#
# Disc length: 2661 seconds
#
# Revision: 0
# Processed by: cddbd v1.5PL3 Copyright (c) Steve Scherf et al.
# Submitted via: dBpowerAMP V4.0
#
DISCID=8c0a630b
DTITLE=La Mala Rodriguez - Lujo Iberico
DYEAR=1900
DGENRE=Hip-Hop
TTITLE0=Tengo un trato
TTITLE1=Con diez o con veinte
TTITLE2=No van
TTITLE3=Especias y especies
TTITLE4=Tambalea
TTITLE5=En mi ciudad hace caló
TTITLE6=La cocinera
TTITLE7=Yo marco el minuto
TTITLE8=Con los ojos de engaña
TTITLE9=El Gallo
TTITLE10=A jierro
EXTD=
EXTT0=
EXTT1=
EXTT2=
EXTT3=
EXTT4=
EXTT5=
EXTT6=
EXTT7=
EXTT8=
EXTT9=
EXTT10=
PLAYORDER=
